<mxfile host="www.draw.io" modified="2019-12-13T15:38:12.310Z" agent="Mozilla/5.0 (Windows NT 10.0; Win64; x64) AppleWebKit/537.36 (KHTML, like Gecko) Chrome/78.0.3904.97 Safari/537.36" etag="l5OIJIJqide7cM9iSLMz" version="12.4.1" type="github" pages="1">
  <diagram id="IdHqrWxbUIfQEn7d7Ye1" name="Page-1">
    <mxGraphModel dx="2258" dy="1848" grid="1" gridSize="10" guides="1" tooltips="1" connect="1" arrows="1" fold="1" page="1" pageScale="1" pageWidth="850" pageHeight="1100" math="0" shadow="0">
      <root>
        <mxCell id="0"/>
        <mxCell id="1" parent="0"/>
        <mxCell id="5MoI0cr_Pmq36j2Hyj8P-24" style="edgeStyle=orthogonalEdgeStyle;rounded=0;orthogonalLoop=1;jettySize=auto;html=1;exitX=0.5;exitY=1;exitDx=0;exitDy=0;entryX=0.5;entryY=0;entryDx=0;entryDy=0;strokeWidth=4;" parent="1" source="5MoI0cr_Pmq36j2Hyj8P-7" target="5MoI0cr_Pmq36j2Hyj8P-15" edge="1">
          <mxGeometry relative="1" as="geometry"/>
        </mxCell>
        <UserObject label="WebUI Shipment Creation on Existing Inbound Order" link="https://jira.int.kn/browse/TCL-3" id="5MoI0cr_Pmq36j2Hyj8P-7">
          <mxCell style="rounded=1;whiteSpace=wrap;html=1;" parent="1" vertex="1">
            <mxGeometry x="200" y="-20" width="120" height="60" as="geometry"/>
          </mxCell>
        </UserObject>
        <UserObject label="WebUI Inbound Order Creation" TCL-2="https://jira.int.kn/browse/TCL-2" link="https://jira.int.kn/browse/TCL-2" id="5MoI0cr_Pmq36j2Hyj8P-8">
          <mxCell style="rounded=1;whiteSpace=wrap;html=1;" parent="1" vertex="1">
            <mxGeometry x="200" y="-120" width="120" height="60" as="geometry"/>
          </mxCell>
        </UserObject>
        <UserObject label="WebUI Putaway Directed" link="https://jira.int.kn/browse/TCL-6" id="5MoI0cr_Pmq36j2Hyj8P-9">
          <mxCell style="rounded=1;whiteSpace=wrap;html=1;" parent="1" vertex="1">
            <mxGeometry x="120" y="520" width="120" height="60" as="geometry"/>
          </mxCell>
        </UserObject>
        <UserObject label="" id="b5oXsS9dEN0uz_ecKiTf-13">
          <mxCell style="edgeStyle=orthogonalEdgeStyle;rounded=0;orthogonalLoop=1;jettySize=auto;html=1;strokeColor=#EA6B66;strokeWidth=4;exitX=0.5;exitY=1;exitDx=0;exitDy=0;entryX=0.5;entryY=0;entryDx=0;entryDy=0;" parent="1" source="5MoI0cr_Pmq36j2Hyj8P-10" target="5MoI0cr_Pmq36j2Hyj8P-14" edge="1">
            <mxGeometry relative="1" as="geometry">
              <mxPoint x="-20" y="248" as="sourcePoint"/>
            </mxGeometry>
          </mxCell>
        </UserObject>
        <UserObject label="WebUI Pallet Receiving - OverQuantity" link="https://jira.int.kn/browse/TCL-23" id="5MoI0cr_Pmq36j2Hyj8P-10">
          <mxCell style="rounded=1;whiteSpace=wrap;html=1;" parent="1" vertex="1">
            <mxGeometry x="-80" y="170" width="120" height="60" as="geometry"/>
          </mxCell>
        </UserObject>
        <mxCell id="Iz1dChFP7ovaoLHMWtyD-4" value="" style="edgeStyle=orthogonalEdgeStyle;rounded=0;orthogonalLoop=1;jettySize=auto;html=1;" parent="1" source="5MoI0cr_Pmq36j2Hyj8P-14" target="b5oXsS9dEN0uz_ecKiTf-2" edge="1">
          <mxGeometry relative="1" as="geometry"/>
        </mxCell>
        <mxCell id="Iz1dChFP7ovaoLHMWtyD-6" value="" style="edgeStyle=orthogonalEdgeStyle;rounded=0;orthogonalLoop=1;jettySize=auto;html=1;" parent="1" source="5MoI0cr_Pmq36j2Hyj8P-14" target="b5oXsS9dEN0uz_ecKiTf-2" edge="1">
          <mxGeometry relative="1" as="geometry"/>
        </mxCell>
        <UserObject label="WebUI Pallet Receiving - UnderQuantity" link="https://jira.int.kn/browse/TCL-24" id="5MoI0cr_Pmq36j2Hyj8P-14">
          <mxCell style="rounded=1;whiteSpace=wrap;html=1;arcSize=7;" parent="1" vertex="1">
            <mxGeometry x="-80" y="267.5" width="115" height="55" as="geometry"/>
          </mxCell>
        </UserObject>
        <UserObject label="WebUI Putaway - Undirected" link="https://jira.int.kn/browse/TCL-22" id="-GqcWbF1u7SNhX_tUYZw-3">
          <mxCell style="rounded=1;whiteSpace=wrap;html=1;" parent="1" vertex="1">
            <mxGeometry x="-75" y="520" width="110" height="60" as="geometry"/>
          </mxCell>
        </UserObject>
        <UserObject label="Staging Location Assignment for Inbound Shipment" link="https://jira.int.kn/browse/TCL-20" id="5MoI0cr_Pmq36j2Hyj8P-15">
          <mxCell style="rounded=1;whiteSpace=wrap;html=1;" parent="1" vertex="1">
            <mxGeometry x="200" y="80" width="120" height="60" as="geometry"/>
          </mxCell>
        </UserObject>
        <UserObject label="WebUI Pallet Receiving" link="https://jira.int.kn/browse/TCL-7" id="5MoI0cr_Pmq36j2Hyj8P-16">
          <mxCell style="rounded=1;whiteSpace=wrap;html=1;" parent="1" vertex="1">
            <mxGeometry x="120" y="360" width="120" height="60" as="geometry"/>
          </mxCell>
        </UserObject>
        <UserObject label="WebUI Inbound Shipment Completion" link="https://jira.int.kn/browse/TCL-14" id="5MoI0cr_Pmq36j2Hyj8P-21">
          <mxCell style="rounded=1;whiteSpace=wrap;html=1;" parent="1" vertex="1">
            <mxGeometry x="200" y="780" width="120" height="60" as="geometry"/>
          </mxCell>
        </UserObject>
        <UserObject label="RF Pallet&amp;nbsp; Receiving&amp;nbsp;" link="https://jira.int.kn/browse/TCL-10" id="b5oXsS9dEN0uz_ecKiTf-1">
          <mxCell style="rounded=1;whiteSpace=wrap;html=1;" parent="1" vertex="1">
            <mxGeometry x="280" y="360" width="120" height="60" as="geometry"/>
          </mxCell>
        </UserObject>
        <UserObject label="" id="b5oXsS9dEN0uz_ecKiTf-14">
          <mxCell style="edgeStyle=orthogonalEdgeStyle;rounded=0;orthogonalLoop=1;jettySize=auto;html=1;strokeColor=#EA6B66;strokeWidth=4;entryX=0.5;entryY=0;entryDx=0;entryDy=0;exitX=0.5;exitY=1;exitDx=0;exitDy=0;" parent="1" source="5MoI0cr_Pmq36j2Hyj8P-14" target="b5oXsS9dEN0uz_ecKiTf-2" edge="1">
            <mxGeometry relative="1" as="geometry">
              <mxPoint x="-20" y="345" as="sourcePoint"/>
              <mxPoint x="-20" y="350" as="targetPoint"/>
              <Array as="points">
                <mxPoint x="-20" y="323"/>
              </Array>
            </mxGeometry>
          </mxCell>
        </UserObject>
        <UserObject label="WebUI Pallet Receiving - Damaged" link="https://jira.int.kn/browse/TCL-33" id="b5oXsS9dEN0uz_ecKiTf-2">
          <mxCell style="rounded=1;whiteSpace=wrap;html=1;" parent="1" vertex="1">
            <mxGeometry x="-80" y="360" width="120" height="60" as="geometry"/>
          </mxCell>
        </UserObject>
        <UserObject label="" link="https://jira.int.kn/browse/TCL-4" id="b5oXsS9dEN0uz_ecKiTf-3">
          <mxCell style="endArrow=classic;html=1;exitX=0.5;exitY=1;exitDx=0;exitDy=0;entryX=0.5;entryY=0;entryDx=0;entryDy=0;strokeWidth=4;" parent="1" source="5MoI0cr_Pmq36j2Hyj8P-15" target="5MoI0cr_Pmq36j2Hyj8P-16" edge="1">
            <mxGeometry width="50" height="50" relative="1" as="geometry">
              <mxPoint x="-160" y="590" as="sourcePoint"/>
              <mxPoint x="-110" y="540" as="targetPoint"/>
            </mxGeometry>
          </mxCell>
        </UserObject>
        <UserObject label="" link="https://jira.int.kn/browse/TCL-21" id="b5oXsS9dEN0uz_ecKiTf-4">
          <mxCell style="endArrow=classic;html=1;entryX=0.5;entryY=0;entryDx=0;entryDy=0;strokeWidth=4;exitX=0.5;exitY=1;exitDx=0;exitDy=0;" parent="1" source="5MoI0cr_Pmq36j2Hyj8P-15" target="b5oXsS9dEN0uz_ecKiTf-1" edge="1">
            <mxGeometry width="50" height="50" relative="1" as="geometry">
              <mxPoint x="290" y="140" as="sourcePoint"/>
              <mxPoint x="-110" y="540" as="targetPoint"/>
            </mxGeometry>
          </mxCell>
        </UserObject>
        <UserObject label="" link="https://jira.int.kn/browse/TCL-30" id="b5oXsS9dEN0uz_ecKiTf-10">
          <mxCell style="endArrow=classic;html=1;fillColor=#fa6800;strokeColor=#EA6B66;rounded=0;strokeWidth=4;exitX=0.5;exitY=1;exitDx=0;exitDy=0;entryX=1;entryY=0.5;entryDx=0;entryDy=0;" parent="1" source="5MoI0cr_Pmq36j2Hyj8P-15" target="5MoI0cr_Pmq36j2Hyj8P-10" edge="1">
            <mxGeometry width="50" height="50" relative="1" as="geometry">
              <mxPoint x="80" y="270" as="sourcePoint"/>
              <mxPoint x="50" y="350" as="targetPoint"/>
            </mxGeometry>
          </mxCell>
        </UserObject>
        <UserObject label="" link="https://jira.int.kn/browse/TCL-12" id="b5oXsS9dEN0uz_ecKiTf-15">
          <mxCell style="edgeStyle=orthogonalEdgeStyle;rounded=0;orthogonalLoop=1;jettySize=auto;html=1;strokeColor=#006EAF;strokeWidth=4;fillColor=#1ba1e2;" parent="1" source="b5oXsS9dEN0uz_ecKiTf-16" edge="1">
            <mxGeometry relative="1" as="geometry">
              <mxPoint x="550" y="270" as="targetPoint"/>
            </mxGeometry>
          </mxCell>
        </UserObject>
        <UserObject label="RF Pallet Receiving - OverQuantity" link="https://jira.int.kn/browse/TCL-15" id="b5oXsS9dEN0uz_ecKiTf-16">
          <mxCell style="rounded=1;whiteSpace=wrap;html=1;" parent="1" vertex="1">
            <mxGeometry x="490" y="170" width="120" height="60" as="geometry"/>
          </mxCell>
        </UserObject>
        <UserObject label="RF Pallet Receiving - UnderQuantity" link="https://jira.int.kn/browse/TCL-37" id="b5oXsS9dEN0uz_ecKiTf-17">
          <mxCell style="rounded=1;whiteSpace=wrap;html=1;" parent="1" vertex="1">
            <mxGeometry x="490" y="270" width="120" height="58" as="geometry"/>
          </mxCell>
        </UserObject>
        <UserObject label="RF Pallet Receiving - Damaged" link="https://jira.int.kn/browse/TCL-12" id="b5oXsS9dEN0uz_ecKiTf-19">
          <mxCell style="rounded=1;whiteSpace=wrap;html=1;" parent="1" vertex="1">
            <mxGeometry x="495" y="360" width="120" height="60" as="geometry"/>
          </mxCell>
        </UserObject>
        <UserObject label="RF Putaway Directed" link="https://jira.int.kn/browse/TCL-11" id="b5oXsS9dEN0uz_ecKiTf-25">
          <mxCell style="rounded=1;whiteSpace=wrap;html=1;" parent="1" vertex="1">
            <mxGeometry x="280" y="520" width="120" height="60" as="geometry"/>
          </mxCell>
        </UserObject>
        <UserObject label="" id="EswywsCH6MP6w3gY_hoO-1">
          <mxCell style="edgeStyle=orthogonalEdgeStyle;rounded=0;orthogonalLoop=1;jettySize=auto;html=1;strokeWidth=4;strokeColor=#2D7600;fillColor=#60a917;" parent="1" source="b5oXsS9dEN0uz_ecKiTf-36" target="b5oXsS9dEN0uz_ecKiTf-37" edge="1">
            <mxGeometry relative="1" as="geometry"/>
          </mxCell>
        </UserObject>
        <mxCell id="b5oXsS9dEN0uz_ecKiTf-36" value="RF Putaway - Undirected" style="rounded=1;whiteSpace=wrap;html=1;" parent="1" vertex="1">
          <mxGeometry x="495" y="520" width="120" height="60" as="geometry"/>
        </mxCell>
        <UserObject label="RF Putaway - Override" link="https://jira.int.kn/browse/TCL-13" id="b5oXsS9dEN0uz_ecKiTf-37">
          <mxCell style="rounded=1;whiteSpace=wrap;html=1;" parent="1" vertex="1">
            <mxGeometry x="495" y="620" width="120" height="60" as="geometry"/>
          </mxCell>
        </UserObject>
        <UserObject label="" id="b5oXsS9dEN0uz_ecKiTf-42">
          <mxCell style="endArrow=classic;html=1;strokeColor=#2D7600;strokeWidth=4;exitX=0.5;exitY=1;exitDx=0;exitDy=0;entryX=1;entryY=0.5;entryDx=0;entryDy=0;fillColor=#60a917;" parent="1" source="b5oXsS9dEN0uz_ecKiTf-37" target="5MoI0cr_Pmq36j2Hyj8P-21" edge="1">
            <mxGeometry width="50" height="50" relative="1" as="geometry">
              <mxPoint x="-50" y="890" as="sourcePoint"/>
              <mxPoint x="340" y="970" as="targetPoint"/>
            </mxGeometry>
          </mxCell>
        </UserObject>
        <UserObject label="" id="b5oXsS9dEN0uz_ecKiTf-47">
          <mxCell style="endArrow=classic;html=1;strokeColor=#A50040;strokeWidth=4;entryX=0;entryY=0.5;entryDx=0;entryDy=0;fillColor=#d80073;exitX=0.5;exitY=1;exitDx=0;exitDy=0;" parent="1" source="-GqcWbF1u7SNhX_tUYZw-3" target="5MoI0cr_Pmq36j2Hyj8P-21" edge="1">
            <mxGeometry width="50" height="50" relative="1" as="geometry">
              <mxPoint x="-10" y="570" as="sourcePoint"/>
              <mxPoint x="-30" y="840" as="targetPoint"/>
            </mxGeometry>
          </mxCell>
        </UserObject>
        <UserObject label="" link="https://jira.int.kn/browse/TCL-34" id="b5oXsS9dEN0uz_ecKiTf-51">
          <mxCell style="endArrow=classic;html=1;strokeColor=#006EAF;strokeWidth=4;exitX=0.5;exitY=1;exitDx=0;exitDy=0;entryX=0;entryY=0.5;entryDx=0;entryDy=0;fillColor=#1ba1e2;" parent="1" source="5MoI0cr_Pmq36j2Hyj8P-15" target="b5oXsS9dEN0uz_ecKiTf-16" edge="1">
            <mxGeometry width="50" height="50" relative="1" as="geometry">
              <mxPoint x="430" y="312.38089425223217" as="sourcePoint"/>
              <mxPoint x="480" y="210" as="targetPoint"/>
              <Array as="points"/>
            </mxGeometry>
          </mxCell>
        </UserObject>
        <UserObject label="" id="JYQMNiyWjS848OFwvH5i-19">
          <mxCell style="endArrow=classic;html=1;exitX=0.5;exitY=1;exitDx=0;exitDy=0;strokeWidth=4;entryX=0.417;entryY=0;entryDx=0;entryDy=0;entryPerimeter=0;" parent="1" source="5MoI0cr_Pmq36j2Hyj8P-9" target="5MoI0cr_Pmq36j2Hyj8P-21" edge="1">
            <mxGeometry width="50" height="50" relative="1" as="geometry">
              <mxPoint x="180" y="837.5" as="sourcePoint"/>
              <mxPoint x="260" y="780" as="targetPoint"/>
            </mxGeometry>
          </mxCell>
        </UserObject>
        <UserObject label="" id="JYQMNiyWjS848OFwvH5i-20">
          <mxCell style="endArrow=classic;html=1;exitX=0.5;exitY=1;exitDx=0;exitDy=0;strokeWidth=4;" parent="1" source="b5oXsS9dEN0uz_ecKiTf-25" edge="1">
            <mxGeometry width="50" height="50" relative="1" as="geometry">
              <mxPoint x="340" y="837.5" as="sourcePoint"/>
              <mxPoint x="270" y="779" as="targetPoint"/>
              <Array as="points"/>
            </mxGeometry>
          </mxCell>
        </UserObject>
        <UserObject label="" id="7n2FkQC8mooo1PTAr7fR-5">
          <mxCell style="endArrow=classic;html=1;strokeWidth=4;exitX=0.5;exitY=1;exitDx=0;exitDy=0;" parent="1" source="5MoI0cr_Pmq36j2Hyj8P-16" edge="1">
            <mxGeometry width="50" height="50" relative="1" as="geometry">
              <mxPoint x="-20" y="430" as="sourcePoint"/>
              <mxPoint x="180" y="518" as="targetPoint"/>
              <Array as="points"/>
            </mxGeometry>
          </mxCell>
        </UserObject>
        <UserObject label="" id="7n2FkQC8mooo1PTAr7fR-8">
          <mxCell style="endArrow=classic;html=1;strokeWidth=4;" parent="1" edge="1">
            <mxGeometry width="50" height="50" relative="1" as="geometry">
              <mxPoint x="340" y="420" as="sourcePoint"/>
              <mxPoint x="340" y="520" as="targetPoint"/>
            </mxGeometry>
          </mxCell>
        </UserObject>
        <UserObject label="" id="-GqcWbF1u7SNhX_tUYZw-5">
          <mxCell style="endArrow=classic;html=1;strokeColor=#EA6B66;strokeWidth=4;entryX=0.5;entryY=0;entryDx=0;entryDy=0;exitX=0.5;exitY=1;exitDx=0;exitDy=0;" parent="1" source="b5oXsS9dEN0uz_ecKiTf-2" target="5MoI0cr_Pmq36j2Hyj8P-9" edge="1">
            <mxGeometry width="50" height="50" relative="1" as="geometry">
              <mxPoint x="-20" y="430" as="sourcePoint"/>
              <mxPoint x="-30" y="860" as="targetPoint"/>
            </mxGeometry>
          </mxCell>
        </UserObject>
        <UserObject label="" id="-GqcWbF1u7SNhX_tUYZw-12">
          <mxCell style="endArrow=classic;html=1;strokeColor=#006EAF;strokeWidth=4;entryX=0.5;entryY=0;entryDx=0;entryDy=0;exitX=0.5;exitY=1;exitDx=0;exitDy=0;" parent="1" source="b5oXsS9dEN0uz_ecKiTf-19" target="b5oXsS9dEN0uz_ecKiTf-25" edge="1">
            <mxGeometry width="50" height="50" relative="1" as="geometry">
              <mxPoint x="550" y="490" as="sourcePoint"/>
              <mxPoint x="470" y="490" as="targetPoint"/>
            </mxGeometry>
          </mxCell>
        </UserObject>
        <UserObject label="" id="-GqcWbF1u7SNhX_tUYZw-16">
          <mxCell style="endArrow=classic;html=1;strokeColor=#A50040;strokeWidth=4;exitX=0.5;exitY=1;exitDx=0;exitDy=0;entryX=0.5;entryY=0;entryDx=0;entryDy=0;" parent="1" source="5MoI0cr_Pmq36j2Hyj8P-16" target="-GqcWbF1u7SNhX_tUYZw-3" edge="1">
            <mxGeometry width="50" height="50" relative="1" as="geometry">
              <mxPoint x="-80" y="910" as="sourcePoint"/>
              <mxPoint x="-30" y="860" as="targetPoint"/>
            </mxGeometry>
          </mxCell>
        </UserObject>
        <mxCell id="-GqcWbF1u7SNhX_tUYZw-18" value="" style="endArrow=classic;html=1;strokeColor=#2D7600;strokeWidth=4;exitX=0.5;exitY=1;exitDx=0;exitDy=0;entryX=0.5;entryY=0;entryDx=0;entryDy=0;" parent="1" source="b5oXsS9dEN0uz_ecKiTf-1" target="b5oXsS9dEN0uz_ecKiTf-36" edge="1">
          <mxGeometry width="50" height="50" relative="1" as="geometry">
            <mxPoint x="-80" y="910" as="sourcePoint"/>
            <mxPoint x="-30" y="860" as="targetPoint"/>
          </mxGeometry>
        </mxCell>
        <UserObject label="" id="Iz1dChFP7ovaoLHMWtyD-3">
          <mxCell style="edgeStyle=orthogonalEdgeStyle;rounded=0;orthogonalLoop=1;jettySize=auto;html=1;strokeColor=#006EAF;strokeWidth=4;fillColor=#1ba1e2;exitX=0.5;exitY=1;exitDx=0;exitDy=0;" parent="1" source="b5oXsS9dEN0uz_ecKiTf-17" edge="1">
            <mxGeometry relative="1" as="geometry">
              <mxPoint x="550" y="340" as="sourcePoint"/>
              <mxPoint x="550" y="360" as="targetPoint"/>
            </mxGeometry>
          </mxCell>
        </UserObject>
        <mxCell id="Iz1dChFP7ovaoLHMWtyD-11" style="edgeStyle=orthogonalEdgeStyle;rounded=0;orthogonalLoop=1;jettySize=auto;html=1;exitX=0.5;exitY=1;exitDx=0;exitDy=0;entryX=0.5;entryY=0;entryDx=0;entryDy=0;strokeWidth=4;" parent="1" source="5MoI0cr_Pmq36j2Hyj8P-8" target="5MoI0cr_Pmq36j2Hyj8P-7" edge="1">
          <mxGeometry relative="1" as="geometry">
            <mxPoint x="280" y="-50" as="sourcePoint"/>
            <mxPoint x="280" y="-10" as="targetPoint"/>
          </mxGeometry>
        </mxCell>
        <UserObject label="WebUI Outbound Order Creation" link="https://jira.int.kn/browse/TCL-16" id="925g83_7qzpylMa0TW13-2">
          <mxCell style="rounded=1;whiteSpace=wrap;html=1;" vertex="1" parent="1">
            <mxGeometry x="1070" y="-120" width="120" height="60" as="geometry"/>
          </mxCell>
        </UserObject>
        <mxCell id="925g83_7qzpylMa0TW13-3" style="edgeStyle=orthogonalEdgeStyle;rounded=0;orthogonalLoop=1;jettySize=auto;html=1;exitX=0.5;exitY=1;exitDx=0;exitDy=0;entryX=0.5;entryY=0;entryDx=0;entryDy=0;strokeWidth=4;" edge="1" parent="1">
          <mxGeometry relative="1" as="geometry">
            <mxPoint x="1129.5" y="-60" as="sourcePoint"/>
            <mxPoint x="1129.5" y="-20" as="targetPoint"/>
            <Array as="points">
              <mxPoint x="1129.5" y="-40"/>
              <mxPoint x="1129.5" y="-40"/>
            </Array>
          </mxGeometry>
        </mxCell>
        <UserObject label="WebUI Outbound Shipment Creation" link="https://jira.int.kn/browse/TCL-26" id="925g83_7qzpylMa0TW13-4">
          <mxCell style="rounded=1;whiteSpace=wrap;html=1;" vertex="1" parent="1">
            <mxGeometry x="1070" y="-20" width="120" height="60" as="geometry"/>
          </mxCell>
        </UserObject>
        <mxCell id="925g83_7qzpylMa0TW13-5" style="edgeStyle=orthogonalEdgeStyle;rounded=0;orthogonalLoop=1;jettySize=auto;html=1;exitX=0.5;exitY=1;exitDx=0;exitDy=0;entryX=0.5;entryY=0;entryDx=0;entryDy=0;strokeWidth=4;" edge="1" parent="1">
          <mxGeometry relative="1" as="geometry">
            <mxPoint x="1130" y="40" as="sourcePoint"/>
            <mxPoint x="1130" y="80" as="targetPoint"/>
            <Array as="points">
              <mxPoint x="1130" y="60"/>
              <mxPoint x="1130" y="60"/>
            </Array>
          </mxGeometry>
        </mxCell>
        <mxCell id="925g83_7qzpylMa0TW13-11" value="" style="edgeStyle=orthogonalEdgeStyle;rounded=0;orthogonalLoop=1;jettySize=auto;html=1;" edge="1" parent="1" source="925g83_7qzpylMa0TW13-6" target="925g83_7qzpylMa0TW13-4">
          <mxGeometry relative="1" as="geometry"/>
        </mxCell>
        <UserObject label="WebUI Manual Wave Planning" link="https://jira.int.kn/browse/TCL-27" id="925g83_7qzpylMa0TW13-6">
          <mxCell style="rounded=1;whiteSpace=wrap;html=1;" vertex="1" parent="1">
            <mxGeometry x="1070" y="80" width="120" height="60" as="geometry"/>
          </mxCell>
        </UserObject>
        <mxCell id="925g83_7qzpylMa0TW13-7" value="WebUI Manual Wave Allocation(Standart Picks)" style="rounded=1;whiteSpace=wrap;html=1;" vertex="1" parent="1">
          <mxGeometry x="960" y="260" width="120" height="60" as="geometry"/>
        </mxCell>
        <UserObject label="&lt;span style=&quot;white-space: normal&quot;&gt;WebUI Manual Wave Allocation(Work Assignment)&lt;/span&gt;" link="https://jira.int.kn/browse/TCL-35" id="925g83_7qzpylMa0TW13-8">
          <mxCell style="rounded=1;whiteSpace=wrap;html=1;" vertex="1" parent="1">
            <mxGeometry x="1180" y="262.5" width="120" height="60" as="geometry"/>
          </mxCell>
        </UserObject>
        <mxCell id="925g83_7qzpylMa0TW13-9" value="" style="endArrow=classic;html=1;exitX=0.5;exitY=1;exitDx=0;exitDy=0;entryX=0.5;entryY=0;entryDx=0;entryDy=0;strokeWidth=4;rounded=0;" edge="1" parent="1" source="925g83_7qzpylMa0TW13-6" target="925g83_7qzpylMa0TW13-7">
          <mxGeometry width="50" height="50" relative="1" as="geometry">
            <mxPoint x="920" y="432.5" as="sourcePoint"/>
            <mxPoint x="970" y="382.5" as="targetPoint"/>
          </mxGeometry>
        </mxCell>
        <mxCell id="925g83_7qzpylMa0TW13-10" value="" style="endArrow=classic;html=1;exitX=0.5;exitY=1;exitDx=0;exitDy=0;entryX=0.5;entryY=0;entryDx=0;entryDy=0;strokeWidth=4;rounded=0;" edge="1" parent="1" source="925g83_7qzpylMa0TW13-6" target="925g83_7qzpylMa0TW13-8">
          <mxGeometry width="50" height="50" relative="1" as="geometry">
            <mxPoint x="890" y="210" as="sourcePoint"/>
            <mxPoint x="940" y="160" as="targetPoint"/>
          </mxGeometry>
        </mxCell>
        <mxCell id="925g83_7qzpylMa0TW13-12" style="edgeStyle=orthogonalEdgeStyle;rounded=0;orthogonalLoop=1;jettySize=auto;html=1;exitX=0.5;exitY=1;exitDx=0;exitDy=0;entryX=0.5;entryY=0;entryDx=0;entryDy=0;strokeWidth=4;" edge="1" parent="1">
          <mxGeometry relative="1" as="geometry">
            <mxPoint x="1019.5" y="320" as="sourcePoint"/>
            <mxPoint x="1019.5" y="360" as="targetPoint"/>
            <Array as="points">
              <mxPoint x="1019" y="340"/>
              <mxPoint x="1019" y="340"/>
            </Array>
          </mxGeometry>
        </mxCell>
        <mxCell id="925g83_7qzpylMa0TW13-13" style="edgeStyle=orthogonalEdgeStyle;rounded=0;orthogonalLoop=1;jettySize=auto;html=1;exitX=0.5;exitY=1;exitDx=0;exitDy=0;entryX=0.5;entryY=0;entryDx=0;entryDy=0;strokeWidth=4;" edge="1" parent="1">
          <mxGeometry relative="1" as="geometry">
            <mxPoint x="1239.5" y="322.5" as="sourcePoint"/>
            <mxPoint x="1239.5" y="362.5" as="targetPoint"/>
            <Array as="points">
              <mxPoint x="1239" y="342.5"/>
              <mxPoint x="1239" y="342.5"/>
            </Array>
          </mxGeometry>
        </mxCell>
        <mxCell id="925g83_7qzpylMa0TW13-14" value="WebUI Load Creation on existing Order" style="rounded=1;whiteSpace=wrap;html=1;" vertex="1" parent="1">
          <mxGeometry x="960" y="460" width="120" height="60" as="geometry"/>
        </mxCell>
        <mxCell id="925g83_7qzpylMa0TW13-15" value="WebUI Dispatch Equipment" style="rounded=1;whiteSpace=wrap;html=1;" vertex="1" parent="1">
          <mxGeometry x="960" y="760" width="120" height="60" as="geometry"/>
        </mxCell>
        <mxCell id="925g83_7qzpylMa0TW13-16" value="WebUI Equipment Creation and Check In on existing Load" style="rounded=1;whiteSpace=wrap;html=1;" vertex="1" parent="1">
          <mxGeometry x="960" y="560" width="120" height="60" as="geometry"/>
        </mxCell>
        <mxCell id="925g83_7qzpylMa0TW13-17" value="RF Pallet Pick to Staging" style="rounded=1;whiteSpace=wrap;html=1;" vertex="1" parent="1">
          <mxGeometry x="960" y="360" width="120" height="60" as="geometry"/>
        </mxCell>
        <mxCell id="925g83_7qzpylMa0TW13-18" value="RF Loading Directed Work" style="rounded=1;whiteSpace=wrap;html=1;" vertex="1" parent="1">
          <mxGeometry x="960" y="660" width="120" height="60" as="geometry"/>
        </mxCell>
        <mxCell id="925g83_7qzpylMa0TW13-20" style="edgeStyle=orthogonalEdgeStyle;rounded=0;orthogonalLoop=1;jettySize=auto;html=1;exitX=0.5;exitY=1;exitDx=0;exitDy=0;entryX=0.5;entryY=0;entryDx=0;entryDy=0;strokeWidth=4;" edge="1" parent="1">
          <mxGeometry relative="1" as="geometry">
            <mxPoint x="1020" y="420" as="sourcePoint"/>
            <mxPoint x="1020" y="460" as="targetPoint"/>
            <Array as="points">
              <mxPoint x="1019.5" y="440"/>
              <mxPoint x="1019.5" y="440"/>
            </Array>
          </mxGeometry>
        </mxCell>
        <mxCell id="925g83_7qzpylMa0TW13-21" style="edgeStyle=orthogonalEdgeStyle;rounded=0;orthogonalLoop=1;jettySize=auto;html=1;exitX=0.5;exitY=1;exitDx=0;exitDy=0;entryX=0.5;entryY=0;entryDx=0;entryDy=0;strokeWidth=4;" edge="1" parent="1">
          <mxGeometry relative="1" as="geometry">
            <mxPoint x="1020" y="520" as="sourcePoint"/>
            <mxPoint x="1020" y="560" as="targetPoint"/>
            <Array as="points">
              <mxPoint x="1019.5" y="540"/>
              <mxPoint x="1019.5" y="540"/>
            </Array>
          </mxGeometry>
        </mxCell>
        <mxCell id="925g83_7qzpylMa0TW13-22" style="edgeStyle=orthogonalEdgeStyle;rounded=0;orthogonalLoop=1;jettySize=auto;html=1;exitX=0.5;exitY=1;exitDx=0;exitDy=0;entryX=0.5;entryY=0;entryDx=0;entryDy=0;strokeWidth=4;" edge="1" parent="1">
          <mxGeometry relative="1" as="geometry">
            <mxPoint x="1020" y="620" as="sourcePoint"/>
            <mxPoint x="1020" y="660" as="targetPoint"/>
            <Array as="points">
              <mxPoint x="1019.5" y="640"/>
              <mxPoint x="1019.5" y="640"/>
            </Array>
          </mxGeometry>
        </mxCell>
        <mxCell id="925g83_7qzpylMa0TW13-23" style="edgeStyle=orthogonalEdgeStyle;rounded=0;orthogonalLoop=1;jettySize=auto;html=1;exitX=0.5;exitY=1;exitDx=0;exitDy=0;entryX=0.5;entryY=0;entryDx=0;entryDy=0;strokeWidth=4;" edge="1" parent="1">
          <mxGeometry relative="1" as="geometry">
            <mxPoint x="1019" y="720" as="sourcePoint"/>
            <mxPoint x="1019" y="760" as="targetPoint"/>
            <Array as="points">
              <mxPoint x="1019" y="730"/>
              <mxPoint x="1019" y="730"/>
            </Array>
          </mxGeometry>
        </mxCell>
        <UserObject label="WebUI Equipment Creation and Check In for Shipping" link="https://jira.int.kn/browse/TCL-43" id="925g83_7qzpylMa0TW13-24">
          <mxCell style="rounded=1;whiteSpace=wrap;html=1;" vertex="1" parent="1">
            <mxGeometry x="1180" y="460" width="120" height="60" as="geometry"/>
          </mxCell>
        </UserObject>
        <UserObject label="RF LTL Loading" link="https://jira.int.kn/browse/TCL-45" id="925g83_7qzpylMa0TW13-26">
          <mxCell style="rounded=1;whiteSpace=wrap;html=1;" vertex="1" parent="1">
            <mxGeometry x="1180" y="560" width="120" height="60" as="geometry"/>
          </mxCell>
        </UserObject>
        <UserObject label="RF Work Assignment Pick to Staging" link="https://jira.int.kn/browse/TCL-40" id="925g83_7qzpylMa0TW13-27">
          <mxCell style="rounded=1;whiteSpace=wrap;html=1;" vertex="1" parent="1">
            <mxGeometry x="1180" y="360" width="120" height="60" as="geometry"/>
          </mxCell>
        </UserObject>
        <UserObject label="RF Dispatch Equipment" link="https://jira.int.kn/browse/TCL-47" id="925g83_7qzpylMa0TW13-28">
          <mxCell style="rounded=1;whiteSpace=wrap;html=1;" vertex="1" parent="1">
            <mxGeometry x="1180" y="660" width="120" height="60" as="geometry"/>
          </mxCell>
        </UserObject>
        <mxCell id="925g83_7qzpylMa0TW13-29" style="edgeStyle=orthogonalEdgeStyle;rounded=0;orthogonalLoop=1;jettySize=auto;html=1;exitX=0.5;exitY=1;exitDx=0;exitDy=0;entryX=0.5;entryY=0;entryDx=0;entryDy=0;strokeWidth=4;" edge="1" parent="1">
          <mxGeometry relative="1" as="geometry">
            <mxPoint x="1240" y="420" as="sourcePoint"/>
            <mxPoint x="1240" y="460" as="targetPoint"/>
            <Array as="points">
              <mxPoint x="1239.5" y="440"/>
              <mxPoint x="1239.5" y="440"/>
            </Array>
          </mxGeometry>
        </mxCell>
        <mxCell id="925g83_7qzpylMa0TW13-30" style="edgeStyle=orthogonalEdgeStyle;rounded=0;orthogonalLoop=1;jettySize=auto;html=1;exitX=0.5;exitY=1;exitDx=0;exitDy=0;entryX=0.5;entryY=0;entryDx=0;entryDy=0;strokeWidth=4;" edge="1" parent="1">
          <mxGeometry relative="1" as="geometry">
            <mxPoint x="1240" y="520" as="sourcePoint"/>
            <mxPoint x="1240" y="560" as="targetPoint"/>
            <Array as="points">
              <mxPoint x="1239.5" y="540"/>
              <mxPoint x="1239.5" y="540"/>
            </Array>
          </mxGeometry>
        </mxCell>
        <mxCell id="925g83_7qzpylMa0TW13-31" style="edgeStyle=orthogonalEdgeStyle;rounded=0;orthogonalLoop=1;jettySize=auto;html=1;exitX=0.5;exitY=1;exitDx=0;exitDy=0;entryX=0.5;entryY=0;entryDx=0;entryDy=0;strokeWidth=4;" edge="1" parent="1">
          <mxGeometry relative="1" as="geometry">
            <mxPoint x="1240" y="620" as="sourcePoint"/>
            <mxPoint x="1240" y="660" as="targetPoint"/>
            <Array as="points">
              <mxPoint x="1239.5" y="640"/>
              <mxPoint x="1239.5" y="640"/>
            </Array>
          </mxGeometry>
        </mxCell>
      </root>
    </mxGraphModel>
  </diagram>
</mxfile>
